<svg preserveAspectRatio="none" overflow="visible" style="display: block;" width="31.0366" height="24.5562" viewBox="0 0 31.0366 24.5562" fill="none" xmlns="http://www.w3.org/2000/svg">
<g id="Union">
<mask id="path-1-outside-1_1199_3908" maskUnits="userSpaceOnUse" x="-0.343744" y="-0.346883" width="32" height="25" fill="black">
<rect fill="white" x="-0.343744" y="-0.346883" width="32" height="25"/>
<path d="M21.0815 6.78816C21.753 6.48171 22.5635 6.70853 22.9692 7.34969C23.038 7.45847 23.0895 7.57346 23.1274 7.69051L23.1303 7.69344L23.2143 7.95809L23.2563 8.08992L23.2866 8.19539C23.3605 8.48059 23.435 9.03175 23.0766 9.5743L23.0307 9.64266L22.9858 9.71102L22.8803 9.85262C22.6176 10.1661 22.2454 10.3575 21.8491 10.3966C21.5534 10.4257 21.3104 10.3642 21.1577 10.3096C21.1389 10.3226 21.1199 10.3363 21.1001 10.3487C20.9328 10.4535 20.7625 10.5162 20.602 10.5509C20.4519 10.702 20.2643 10.8283 20.0425 10.9093C19.9504 10.9429 19.8609 10.964 19.7759 10.9786C19.7726 11.0186 19.7701 11.0609 19.7632 11.1036C19.7337 11.2855 19.6341 11.6435 19.3403 11.9434C19.4691 12.0679 19.5611 12.2 19.6235 12.3126C19.686 12.3545 19.7434 12.4006 19.7964 12.4483C19.8444 12.4356 19.8947 12.4227 19.9477 12.4141C20.2466 12.3662 20.5674 12.4064 20.8608 12.547C20.9609 12.5023 21.0761 12.4621 21.2065 12.4376C21.4444 12.3928 21.7346 12.3975 22.0327 12.5098C22.2156 12.5789 22.3648 12.6778 22.4868 12.7823C22.7637 12.7469 23.0853 12.7783 23.395 12.9405L23.5737 13.0509L23.7026 13.1417C24.1585 13.465 24.3041 13.9174 24.3511 14.1671C24.3864 14.3555 24.387 14.5266 24.3774 14.6573L24.3647 14.7745L24.3432 14.9522L24.3169 15.1632L24.3081 15.1817C24.3024 15.318 24.2789 15.456 24.2339 15.5919C23.9817 16.3517 23.1806 16.7743 22.4175 16.5665C22.407 16.5693 22.3969 16.5737 22.3862 16.5762C22.0774 16.6512 21.6771 16.6432 21.2915 16.4317C21.0882 16.3202 20.9426 16.1777 20.8364 16.045L20.6909 15.9971L20.6948 15.9864C20.6677 15.9819 20.6405 15.974 20.6128 15.9679C20.4035 16.0005 20.1742 15.9932 19.9458 15.9278C19.8495 15.9708 19.7435 16.0112 19.6274 16.0382L19.5415 16.0567L19.4565 16.0762C19.0166 16.1785 18.5161 16.0937 18.1137 15.7716C17.8856 15.7561 17.6827 15.6906 17.5083 15.5968C17.2471 15.5786 16.9701 15.4949 16.7143 15.3038C16.541 15.2596 16.366 15.184 16.2016 15.0655C16.1603 15.0357 16.1221 15.0042 16.0864 14.9727C15.8619 14.9511 15.6466 14.8808 15.4546 14.7677C15.2682 14.9407 15.0331 15.0732 14.7593 15.1358C14.6217 15.1673 14.4932 15.1769 14.3784 15.1739C14.3327 15.2275 14.284 15.2822 14.228 15.3331L14.1714 15.3829L14.1147 15.4356L13.9741 15.5509C13.8362 15.6515 13.6906 15.7231 13.5454 15.7745C13.4278 16.0691 13.2055 16.3972 12.7768 16.6114L12.7095 16.6446L12.6411 16.6788C12.2138 16.892 11.8141 16.8517 11.5952 16.8018C11.5088 16.7821 11.4305 16.7554 11.3618 16.7286C11.2863 16.8373 11.1925 16.947 11.0737 17.047C10.866 17.2215 10.6343 17.3284 10.4067 17.3829C10.3694 17.4226 10.3292 17.4631 10.2846 17.5011C9.97358 17.7659 9.61471 17.8605 9.31785 17.8653C9.22834 17.8667 9.14375 17.8576 9.06492 17.8458C8.44136 18.0242 7.74962 17.7829 7.38523 17.2071C7.06254 16.6969 7.0877 16.0668 7.395 15.5909C7.43989 15.4831 7.50055 15.3638 7.58543 15.2471C7.58582 15.2436 7.58501 15.24 7.58543 15.2364C7.60559 15.0744 7.67167 14.7482 7.93113 14.4376C8.1619 14.1615 8.45973 14.0005 8.7573 13.9317C8.82332 13.8203 8.90823 13.7068 9.02 13.6007C9.35247 13.2852 9.7161 13.1934 10.0161 13.1856C10.0905 13.148 10.1686 13.1139 10.2514 13.088C10.4196 13.0353 10.5775 13.0176 10.7163 13.0177C10.6069 12.9149 10.5231 12.8052 10.4595 12.7012C10.3078 12.7971 10.1175 12.8899 9.89109 12.9395L9.72117 12.9766C9.38889 13.0495 8.97675 13.0229 8.59324 12.794C8.2458 12.5865 8.06737 12.2985 7.98191 12.1202C7.97155 12.0986 7.96274 12.0762 7.95359 12.0548C7.82491 11.946 7.72665 11.8275 7.65476 11.7188C7.56757 11.6727 7.49092 11.6189 7.42136 11.5645C6.80742 11.2198 6.50289 10.4784 6.73289 9.78523C6.9145 9.23798 7.38163 8.86642 7.91355 8.7784C7.99491 8.71486 8.09198 8.6464 8.20847 8.5909C8.38576 8.50649 8.68947 8.40319 9.06785 8.45223C9.47701 8.50542 9.79723 8.7129 10.0083 8.94832C10.1611 9.11893 10.2524 9.30064 10.3091 9.45418C10.341 9.4434 10.3745 9.4321 10.4087 9.42293C10.4964 9.39939 10.5904 9.38447 10.688 9.37605C10.891 9.24834 11.1808 9.11868 11.5434 9.10555L11.6235 9.10164L11.7036 9.09871L11.8325 9.09969C12.272 9.11883 12.6093 9.31921 12.8403 9.54988C12.9726 9.53954 13.1143 9.54154 13.2622 9.56453L13.3374 9.57527L13.4126 9.58797C13.9729 9.67531 14.3218 10.0086 14.52 10.2979C14.6437 10.2884 14.7562 10.2955 14.852 10.3087C15.1158 10.071 15.4235 9.9632 15.7036 9.93172C15.8213 9.78028 15.9753 9.6333 16.1821 9.5157L16.313 9.44148C16.4229 9.37905 16.5326 9.33561 16.6382 9.30379C16.7349 9.05128 16.9322 8.72825 17.3159 8.50887L17.3813 8.47078L17.4458 8.43367C17.5187 8.39199 17.5939 8.35309 17.6694 8.31648L17.7378 8.28328L17.7807 8.26277L17.7954 8.25301L17.8305 8.21492C17.9156 8.12241 18.0057 8.04586 18.0971 7.9825C18.1366 7.91246 18.1816 7.84032 18.2378 7.77059C18.5982 7.32363 19.0642 7.20852 19.4253 7.20711C19.4717 7.17111 19.52 7.13428 19.5737 7.10164L19.6391 7.06258L19.7026 7.02352C20.0082 6.83817 20.3287 6.77065 20.6069 6.7657L20.7817 6.76277C20.8886 6.76089 20.989 6.77226 21.0815 6.78816ZM20.5688 8.56355L20.6274 8.54891L20.6372 8.54598L20.5688 8.56355Z"/>
</mask>
<path d="M21.0815 6.78816C21.753 6.48171 22.5635 6.70853 22.9692 7.34969C23.038 7.45847 23.0895 7.57346 23.1274 7.69051L23.1303 7.69344L23.2143 7.95809L23.2563 8.08992L23.2866 8.19539C23.3605 8.48059 23.435 9.03175 23.0766 9.5743L23.0307 9.64266L22.9858 9.71102L22.8803 9.85262C22.6176 10.1661 22.2454 10.3575 21.8491 10.3966C21.5534 10.4257 21.3104 10.3642 21.1577 10.3096C21.1389 10.3226 21.1199 10.3363 21.1001 10.3487C20.9328 10.4535 20.7625 10.5162 20.602 10.5509C20.4519 10.702 20.2643 10.8283 20.0425 10.9093C19.9504 10.9429 19.8609 10.964 19.7759 10.9786C19.7726 11.0186 19.7701 11.0609 19.7632 11.1036C19.7337 11.2855 19.6341 11.6435 19.3403 11.9434C19.4691 12.0679 19.5611 12.2 19.6235 12.3126C19.686 12.3545 19.7434 12.4006 19.7964 12.4483C19.8444 12.4356 19.8947 12.4227 19.9477 12.4141C20.2466 12.3662 20.5674 12.4064 20.8608 12.547C20.9609 12.5023 21.0761 12.4621 21.2065 12.4376C21.4444 12.3928 21.7346 12.3975 22.0327 12.5098C22.2156 12.5789 22.3648 12.6778 22.4868 12.7823C22.7637 12.7469 23.0853 12.7783 23.395 12.9405L23.5737 13.0509L23.7026 13.1417C24.1585 13.465 24.3041 13.9174 24.3511 14.1671C24.3864 14.3555 24.387 14.5266 24.3774 14.6573L24.3647 14.7745L24.3432 14.9522L24.3169 15.1632L24.3081 15.1817C24.3024 15.318 24.2789 15.456 24.2339 15.5919C23.9817 16.3517 23.1806 16.7743 22.4175 16.5665C22.407 16.5693 22.3969 16.5737 22.3862 16.5762C22.0774 16.6512 21.6771 16.6432 21.2915 16.4317C21.0882 16.3202 20.9426 16.1777 20.8364 16.045L20.6909 15.9971L20.6948 15.9864C20.6677 15.9819 20.6405 15.974 20.6128 15.9679C20.4035 16.0005 20.1742 15.9932 19.9458 15.9278C19.8495 15.9708 19.7435 16.0112 19.6274 16.0382L19.5415 16.0567L19.4565 16.0762C19.0166 16.1785 18.5161 16.0937 18.1137 15.7716C17.8856 15.7561 17.6827 15.6906 17.5083 15.5968C17.2471 15.5786 16.9701 15.4949 16.7143 15.3038C16.541 15.2596 16.366 15.184 16.2016 15.0655C16.1603 15.0357 16.1221 15.0042 16.0864 14.9727C15.8619 14.9511 15.6466 14.8808 15.4546 14.7677C15.2682 14.9407 15.0331 15.0732 14.7593 15.1358C14.6217 15.1673 14.4932 15.1769 14.3784 15.1739C14.3327 15.2275 14.284 15.2822 14.228 15.3331L14.1714 15.3829L14.1147 15.4356L13.9741 15.5509C13.8362 15.6515 13.6906 15.7231 13.5454 15.7745C13.4278 16.0691 13.2055 16.3972 12.7768 16.6114L12.7095 16.6446L12.6411 16.6788C12.2138 16.892 11.8141 16.8517 11.5952 16.8018C11.5088 16.7821 11.4305 16.7554 11.3618 16.7286C11.2863 16.8373 11.1925 16.947 11.0737 17.047C10.866 17.2215 10.6343 17.3284 10.4067 17.3829C10.3694 17.4226 10.3292 17.4631 10.2846 17.5011C9.97358 17.7659 9.61471 17.8605 9.31785 17.8653C9.22834 17.8667 9.14375 17.8576 9.06492 17.8458C8.44136 18.0242 7.74962 17.7829 7.38523 17.2071C7.06254 16.6969 7.0877 16.0668 7.395 15.5909C7.43989 15.4831 7.50055 15.3638 7.58543 15.2471C7.58582 15.2436 7.58501 15.24 7.58543 15.2364C7.60559 15.0744 7.67167 14.7482 7.93113 14.4376C8.1619 14.1615 8.45973 14.0005 8.7573 13.9317C8.82332 13.8203 8.90823 13.7068 9.02 13.6007C9.35247 13.2852 9.7161 13.1934 10.0161 13.1856C10.0905 13.148 10.1686 13.1139 10.2514 13.088C10.4196 13.0353 10.5775 13.0176 10.7163 13.0177C10.6069 12.9149 10.5231 12.8052 10.4595 12.7012C10.3078 12.7971 10.1175 12.8899 9.89109 12.9395L9.72117 12.9766C9.38889 13.0495 8.97675 13.0229 8.59324 12.794C8.2458 12.5865 8.06737 12.2985 7.98191 12.1202C7.97155 12.0986 7.96274 12.0762 7.95359 12.0548C7.82491 11.946 7.72665 11.8275 7.65476 11.7188C7.56757 11.6727 7.49092 11.6189 7.42136 11.5645C6.80742 11.2198 6.50289 10.4784 6.73289 9.78523C6.9145 9.23798 7.38163 8.86642 7.91355 8.7784C7.99491 8.71486 8.09198 8.6464 8.20847 8.5909C8.38576 8.50649 8.68947 8.40319 9.06785 8.45223C9.47701 8.50542 9.79723 8.7129 10.0083 8.94832C10.1611 9.11893 10.2524 9.30064 10.3091 9.45418C10.341 9.4434 10.3745 9.4321 10.4087 9.42293C10.4964 9.39939 10.5904 9.38447 10.688 9.37605C10.891 9.24834 11.1808 9.11868 11.5434 9.10555L11.6235 9.10164L11.7036 9.09871L11.8325 9.09969C12.272 9.11883 12.6093 9.31921 12.8403 9.54988C12.9726 9.53954 13.1143 9.54154 13.2622 9.56453L13.3374 9.57527L13.4126 9.58797C13.9729 9.67531 14.3218 10.0086 14.52 10.2979C14.6437 10.2884 14.7562 10.2955 14.852 10.3087C15.1158 10.071 15.4235 9.9632 15.7036 9.93172C15.8213 9.78028 15.9753 9.6333 16.1821 9.5157L16.313 9.44148C16.4229 9.37905 16.5326 9.33561 16.6382 9.30379C16.7349 9.05128 16.9322 8.72825 17.3159 8.50887L17.3813 8.47078L17.4458 8.43367C17.5187 8.39199 17.5939 8.35309 17.6694 8.31648L17.7378 8.28328L17.7807 8.26277L17.7954 8.25301L17.8305 8.21492C17.9156 8.12241 18.0057 8.04586 18.0971 7.9825C18.1366 7.91246 18.1816 7.84032 18.2378 7.77059C18.5982 7.32363 19.0642 7.20852 19.4253 7.20711C19.4717 7.17111 19.52 7.13428 19.5737 7.10164L19.6391 7.06258L19.7026 7.02352C20.0082 6.83817 20.3287 6.77065 20.6069 6.7657L20.7817 6.76277C20.8886 6.76089 20.989 6.77226 21.0815 6.78816ZM20.5688 8.56355L20.6274 8.54891L20.6372 8.54598L20.5688 8.56355Z" fill="black"/>
<path d="M21.0815 6.78816L19.9539 13.3458L21.9768 13.6936L23.8441 12.8415L21.0815 6.78816ZM22.9692 7.34969L28.5938 3.79465L28.5919 3.79169L22.9692 7.34969ZM23.1274 7.69051L16.7973 9.74073L17.2905 11.2636L18.4224 12.3955L23.1274 7.69051ZM23.1303 7.69344L29.4725 5.68079L28.982 4.13511L27.8354 2.98843L23.1303 7.69344ZM23.2143 7.95809L16.8721 9.97074L16.8743 9.9775L23.2143 7.95809ZM23.2563 8.08992L29.6519 6.25414L29.6255 6.16192L29.5964 6.0705L23.2563 8.08992ZM23.2866 8.19539L29.7278 6.52674L29.7061 6.44288L29.6822 6.35961L23.2866 8.19539ZM23.0766 9.5743L28.6008 13.2834L28.6148 13.2625L28.6287 13.2415L23.0766 9.5743ZM23.0307 9.64266L17.5065 5.93356L17.4882 5.96093L17.4701 5.98849L23.0307 9.64266ZM22.9858 9.71102L28.3221 13.6857L28.439 13.5287L28.5465 13.3652L22.9858 9.71102ZM22.8803 9.85262L27.9802 14.1265L28.1027 13.9803L28.2167 13.8273L22.8803 9.85262ZM21.8491 10.3966L22.5004 17.0185L22.5016 17.0184L21.8491 10.3966ZM21.1577 10.3096L23.3947 4.04309L20.1839 2.89688L17.3781 4.83347L21.1577 10.3096ZM21.1001 10.3487L24.6341 15.9865L24.6353 15.9858L21.1001 10.3487ZM20.602 10.5509L19.1958 4.04728L17.2709 4.46349L15.8826 5.86034L20.602 10.5509ZM20.0425 10.9093L22.3244 17.1596L22.3247 17.1595L20.0425 10.9093ZM19.7759 10.9786L18.6515 4.42039L13.5691 5.29171L13.1446 10.4308L19.7759 10.9786ZM19.7632 11.1036L26.3312 12.169L26.332 12.1641L19.7632 11.1036ZM19.3403 11.9434L14.587 7.28726L9.89866 12.0734L14.7169 16.7287L19.3403 11.9434ZM19.6235 12.3126L13.8036 15.5378L14.582 16.9425L15.9154 17.8375L19.6235 12.3126ZM19.7964 12.4483L15.3416 17.3909L18.0162 19.8015L21.4972 18.8811L19.7964 12.4483ZM19.9477 12.4141L18.8929 5.84441L18.8918 5.84458L19.9477 12.4141ZM20.8608 12.547L17.9862 18.5478L20.7602 19.8767L23.5697 18.6245L20.8608 12.547ZM21.2065 12.4376L19.977 5.89829L19.9752 5.89863L21.2065 12.4376ZM22.0327 12.5098L24.3819 6.28448L24.38 6.28374L22.0327 12.5098ZM22.4868 12.7823L18.1581 17.8356L20.4016 19.7574L23.3317 19.3823L22.4868 12.7823ZM23.395 12.9405L26.8909 7.27899L26.6902 7.15506L26.4812 7.04565L23.395 12.9405ZM23.5737 13.0509L27.406 7.61143L27.2412 7.49529L27.0696 7.38935L23.5737 13.0509ZM23.7026 13.1417L27.5515 7.71396L27.5432 7.70809L27.5349 7.70225L23.7026 13.1417ZM24.3511 14.1671L30.8908 12.9397L30.8905 12.9386L24.3511 14.1671ZM24.3774 14.6573L30.9926 15.3739L31.005 15.2594L31.0134 15.1444L24.3774 14.6573ZM24.3647 14.7745L30.9705 15.573L30.9755 15.5321L30.9799 15.4911L24.3647 14.7745ZM24.3432 14.9522L30.9457 15.7775L30.9474 15.7641L30.949 15.7507L24.3432 14.9522ZM24.3169 15.1632L30.3302 18.0116L30.787 17.0473L30.9194 15.9885L24.3169 15.1632ZM24.3081 15.1817L18.2947 12.3333L17.7162 13.5547L17.66 14.905L24.3081 15.1817ZM24.2339 15.5919L30.5491 17.6876L30.5503 17.684L24.2339 15.5919ZM22.4175 16.5665L24.1658 10.1464L22.4208 9.67122L20.6754 10.1447L22.4175 16.5665ZM22.3862 16.5762L23.9558 23.0424L23.9579 23.0418L22.3862 16.5762ZM21.2915 16.4317L18.091 22.2653L18.0918 22.2658L21.2915 16.4317ZM20.8364 16.045L26.031 11.8868L24.7946 10.3422L22.9151 9.72414L20.8364 16.045ZM20.6909 15.9971L14.4376 13.7232L12.092 20.1738L18.6122 22.318L20.6909 15.9971ZM20.6948 15.9864L26.9481 18.2603L29.685 10.7337L21.7843 9.42233L20.6948 15.9864ZM20.6128 15.9679L22.0528 9.47167L20.8276 9.20007L19.5876 9.39342L20.6128 15.9679ZM19.9458 15.9278L21.7766 9.53077L19.4455 8.8636L17.2316 9.85266L19.9458 15.9278ZM19.6274 16.0382L21.0317 22.5422L21.0827 22.5312L21.1335 22.5194L19.6274 16.0382ZM19.5415 16.0567L18.1372 9.55271L18.0939 9.56206L18.0507 9.57198L19.5415 16.0567ZM19.4565 16.0762L17.9658 9.59151L17.9582 9.59326L17.9506 9.59503L19.4565 16.0762ZM18.1137 15.7716L22.2727 10.5776L20.6448 9.27412L18.5642 9.13295L18.1137 15.7716ZM17.5083 15.5968L20.6614 9.73739L19.399 9.05808L17.9689 8.95884L17.5083 15.5968ZM16.7143 15.3038L20.6974 9.97376L19.6381 9.18212L18.3565 8.85574L16.7143 15.3038ZM16.2016 15.0655L12.3073 20.4607L12.3099 20.4626L16.2016 15.0655ZM16.0864 14.9727L20.4816 9.97711L18.8661 8.55578L16.7243 8.3495L16.0864 14.9727ZM15.4546 14.7677L18.8321 9.03475L14.5612 6.51852L10.928 9.89075L15.4546 14.7677ZM14.7593 15.1358L16.2411 21.6226L16.2433 21.6221L14.7593 15.1358ZM14.3784 15.1739L14.5543 8.52235L11.3772 8.43831L9.31513 10.8568L14.3784 15.1739ZM14.228 15.3331L18.6218 20.33L18.6625 20.2942L18.7026 20.2577L14.228 15.3331ZM14.1714 15.3829L9.77757 10.386L9.70653 10.4485L9.63729 10.513L14.1714 15.3829ZM14.1147 15.4356L18.3321 20.5823L18.4948 20.4489L18.6488 20.3056L14.1147 15.4356ZM13.9741 15.5509L17.8968 20.9255L18.0473 20.8156L18.1915 20.6975L13.9741 15.5509ZM13.5454 15.7745L11.3266 9.50146L8.48321 10.5072L7.3654 13.3084L13.5454 15.7745ZM12.7768 16.6114L15.7179 22.58L15.7345 22.5718L15.751 22.5636L12.7768 16.6114ZM12.7095 16.6446L9.7684 10.676L9.75105 10.6845L9.73375 10.6932L12.7095 16.6446ZM12.6411 16.6788L15.6125 22.6324L15.6168 22.6302L12.6411 16.6788ZM11.5952 16.8018L10.1151 23.289L10.1173 23.2895L11.5952 16.8018ZM11.3618 16.7286L13.7798 10.5296L8.89103 8.62271L5.89715 12.9323L11.3618 16.7286ZM11.0737 17.047L15.3552 22.1403L15.3574 22.1385L11.0737 17.047ZM10.4067 17.3829L8.85798 10.9118L6.92313 11.3748L5.56003 12.824L10.4067 17.3829ZM10.2846 17.5011L14.5983 22.5673L14.5997 22.566L10.2846 17.5011ZM9.31785 17.8653L9.42374 24.5183L9.42595 24.5183L9.31785 17.8653ZM9.06492 17.8458L10.0526 11.2656L8.62383 11.0511L7.23473 11.4486L9.06492 17.8458ZM7.38523 17.2071L1.76171 20.7638L1.76282 20.7656L7.38523 17.2071ZM7.395 15.5909L12.9847 19.2005L13.308 18.6998L13.5373 18.1496L7.395 15.5909ZM7.58543 15.2471L12.9657 19.1621L14.0012 17.739L14.1977 15.9899L7.58543 15.2471ZM7.58543 15.2364L0.982469 14.4148L0.980247 14.4327L0.978121 14.4505L7.58543 15.2364ZM7.93113 14.4376L2.82586 10.1702L2.82444 10.1719L7.93113 14.4376ZM8.7573 13.9317L10.2559 20.4147L13.0308 19.7732L14.4823 17.3227L8.7573 13.9317ZM9.02 13.6007L4.43972 8.77415L4.43897 8.77487L9.02 13.6007ZM10.0161 13.1856L10.1877 19.8373L11.6818 19.7987L13.016 19.1249L10.0161 13.1856ZM10.2514 13.088L8.26254 6.73829L8.2605 6.73893L10.2514 13.088ZM10.7163 13.0177L10.7136 19.6715L27.5271 19.6782L15.2716 8.16757L10.7163 13.0177ZM10.4595 12.7012L16.1344 9.22715L12.6103 3.47058L6.90465 7.07653L10.4595 12.7012ZM9.89109 12.9395L11.3108 19.4402L11.3162 19.439L9.89109 12.9395ZM9.72117 12.9766L8.30148 6.47598L8.29689 6.47698L9.72117 12.9766ZM8.59324 12.794L5.18088 18.5063L5.183 18.5075L8.59324 12.794ZM7.98191 12.1202L1.98113 14.995L1.98174 14.9963L7.98191 12.1202ZM7.95359 12.0548L14.0752 9.44698L13.4559 7.99332L12.2492 6.97326L7.95359 12.0548ZM7.65476 11.7188L13.2044 8.04798L12.2677 6.63177L10.7669 5.8376L7.65476 11.7188ZM7.42136 11.5645L11.5168 6.32034L11.119 6.00969L10.6789 5.7626L7.42136 11.5645ZM6.73289 9.78523L0.417665 7.68951L0.417559 7.68983L6.73289 9.78523ZM7.91355 8.7784L8.99983 15.343L10.6726 15.0662L12.0088 14.0227L7.91355 8.7784ZM8.20847 8.5909L5.34821 2.58315L5.34661 2.58392L8.20847 8.5909ZM9.06785 8.45223L9.92573 1.85388L9.92297 1.85352L9.06785 8.45223ZM10.0083 8.94832L14.9639 4.50807L14.9627 4.50677L10.0083 8.94832ZM10.3091 9.45418L4.06612 11.7563L6.30493 17.8275L12.4362 15.7589L10.3091 9.45418ZM10.4087 9.42293L8.68475 2.99625L8.6831 2.99669L10.4087 9.42293ZM10.688 9.37605L11.2594 16.0053L12.866 15.8669L14.2309 15.0083L10.688 9.37605ZM11.5434 9.10555L11.7842 15.7551L11.8259 15.7536L11.8676 15.7515L11.5434 9.10555ZM11.6235 9.10164L11.3802 2.45221L11.3398 2.45369L11.2993 2.45566L11.6235 9.10164ZM11.7036 9.09871L11.754 2.44502L11.6071 2.44391L11.4603 2.44928L11.7036 9.09871ZM11.8325 9.09969L12.122 2.45211L12.0025 2.44691L11.8829 2.446L11.8325 9.09969ZM12.8403 9.54988L8.13872 14.2583L10.3058 16.4222L13.359 16.1835L12.8403 9.54988ZM13.2622 9.56453L12.24 16.1394L12.2806 16.1457L12.3212 16.1515L13.2622 9.56453ZM13.3374 9.57527L14.4451 3.01425L14.3619 3.0002L14.2784 2.98827L13.3374 9.57527ZM13.4126 9.58797L12.3049 16.149L12.3463 16.156L12.3878 16.1625L13.4126 9.58797ZM14.52 10.2979L9.03081 14.0586L11.2022 17.228L15.0326 16.932L14.52 10.2979ZM14.852 10.3087L13.9467 16.9007L17.0093 17.3213L19.3059 15.252L14.852 10.3087ZM15.7036 9.93172L16.447 16.5439L19.2352 16.2305L20.9571 14.0152L15.7036 9.93172ZM16.1821 9.5157L12.8995 3.72791L12.8931 3.73155L16.1821 9.5157ZM16.313 9.44148L19.5956 15.2293L19.5993 15.2272L16.313 9.44148ZM16.6382 9.30379L18.5584 15.6746L21.6833 14.7327L22.8513 11.6851L16.6382 9.30379ZM17.3159 8.50887L20.6187 14.2851L20.641 14.2724L20.6633 14.2595L17.3159 8.50887ZM17.3813 8.47078L14.0613 2.70438L14.0476 2.71225L14.034 2.72019L17.3813 8.47078ZM17.4458 8.43367L14.1451 2.65619L14.1354 2.66171L14.1257 2.66727L17.4458 8.43367ZM17.6694 8.31648L20.5716 14.3041L20.5765 14.3017L17.6694 8.31648ZM17.7378 8.28328L14.8717 2.27828L14.8512 2.2881L14.8307 2.29806L17.7378 8.28328ZM17.7807 8.26277L20.6468 14.2678L21.076 14.0629L21.4716 13.7991L17.7807 8.26277ZM17.7954 8.25301L21.4863 13.7894L22.1465 13.3492L22.6847 12.7662L17.7954 8.25301ZM17.8305 8.21492L22.7198 12.7281L22.7247 12.7229L22.7295 12.7177L17.8305 8.21492ZM18.0971 7.9825L21.8855 13.4527L23.1442 12.5809L23.8953 11.2467L18.0971 7.9825ZM18.2378 7.77059L13.0583 3.59355L13.0555 3.59705L18.2378 7.77059ZM19.4253 7.20711L19.4512 13.8609L21.7128 13.8521L23.5006 12.4669L19.4253 7.20711ZM19.5737 7.10164L16.1629 1.38848L16.1406 1.40176L16.1185 1.41523L19.5737 7.10164ZM19.6391 7.06258L23.05 12.7757L23.0884 12.7528L23.1264 12.7294L19.6391 7.06258ZM19.7026 7.02352L16.2518 1.33443L16.2335 1.3455L16.2153 1.35668L19.7026 7.02352ZM20.6069 6.7657L20.4954 0.112755L20.4885 0.112878L20.6069 6.7657ZM20.7817 6.76277L20.8932 13.4157L20.8989 13.4156L20.7817 6.76277ZM20.5688 8.56355L18.9117 2.11932L22.1826 15.0188L20.5688 8.56355ZM20.6274 8.54891L22.2412 15.0041L22.3913 14.9666L22.5394 14.9222L20.6274 8.54891ZM20.6372 8.54598L22.5492 14.9192L18.9801 2.10174L20.6372 8.54598ZM21.0815 6.78816L23.8441 12.8415C21.5431 13.8916 18.7506 13.1265 17.3465 10.9077L22.9692 7.34969L28.5919 3.79169C26.3764 0.29056 21.963 -0.928136 18.319 0.73486L21.0815 6.78816ZM22.9692 7.34969L17.3446 10.9047C17.0829 10.4906 16.9104 10.09 16.7973 9.74073L23.1274 7.69051L29.4576 5.64028C29.2686 5.05693 28.993 4.4263 28.5938 3.79465L22.9692 7.34969ZM23.1274 7.69051L18.4224 12.3955L18.4253 12.3984L23.1303 7.69344L27.8354 2.98843L27.8324 2.9855L23.1274 7.69051ZM23.1303 7.69344L16.7882 9.70609L16.8721 9.97074L23.2143 7.95809L29.5565 5.94544L29.4725 5.68079L23.1303 7.69344ZM23.2143 7.95809L16.8743 9.9775L16.9163 10.1093L23.2563 8.08992L29.5964 6.0705L29.5544 5.93867L23.2143 7.95809ZM23.2563 8.08992L16.8607 9.9257L16.891 10.0312L23.2866 8.19539L29.6822 6.35961L29.6519 6.25414L23.2563 8.08992ZM23.2866 8.19539L16.8453 9.86404C16.7025 9.3126 16.3906 7.62383 17.5246 5.90705L23.0766 9.5743L28.6287 13.2415C30.4794 10.4397 30.0185 7.64857 29.7278 6.52674L23.2866 8.19539ZM23.0766 9.5743L17.5524 5.8652L17.5065 5.93356L23.0307 9.64266L28.5549 13.3518L28.6008 13.2834L23.0766 9.5743ZM23.0307 9.64266L17.4701 5.98849L17.4251 6.05685L22.9858 9.71102L28.5465 13.3652L28.5914 13.2968L23.0307 9.64266ZM22.9858 9.71102L17.6495 5.73638L17.544 5.87798L22.8803 9.85262L28.2167 13.8273L28.3221 13.6857L22.9858 9.71102ZM22.8803 9.85262L17.7805 5.57873C18.6553 4.53499 19.8904 3.90348 21.1965 3.77476L21.8491 10.3966L22.5016 17.0184C24.6004 16.8115 26.58 15.7972 27.9802 14.1265L22.8803 9.85262ZM21.8491 10.3966L21.1978 3.77464C22.1719 3.67883 22.9466 3.88312 23.3947 4.04309L21.1577 10.3096L18.9206 16.5762C19.6742 16.8452 20.9349 17.1725 22.5004 17.0185L21.8491 10.3966ZM21.1577 10.3096L17.3781 4.83347C17.3584 4.84704 17.3399 4.85996 17.3394 4.86028C17.3341 4.864 17.3441 4.85699 17.3575 4.84782C17.3834 4.82994 17.4608 4.77692 17.5649 4.71163L21.1001 10.3487L24.6353 15.9858C24.7591 15.9081 24.8559 15.842 24.9011 15.811C24.924 15.7952 24.9435 15.7815 24.9477 15.7787C24.9567 15.7724 24.9476 15.7787 24.9373 15.7858L21.1577 10.3096ZM21.1001 10.3487L17.5661 4.71091C18.1214 4.36278 18.686 4.15751 19.1958 4.04728L20.602 10.5509L22.0083 17.0544C22.839 16.8748 23.7442 16.5443 24.6341 15.9865L21.1001 10.3487ZM20.602 10.5509L15.8826 5.86034C16.3804 5.3595 17.0129 4.9319 17.7602 4.65904L20.0425 10.9093L22.3247 17.1595C23.5156 16.7246 24.5234 16.0444 25.3215 15.2414L20.602 10.5509ZM20.0425 10.9093L17.7605 4.65891C18.1314 4.5235 18.4455 4.45571 18.6515 4.42039L19.7759 10.9786L20.9002 17.5368C21.2762 17.4723 21.7695 17.3622 22.3244 17.1596L20.0425 10.9093ZM19.7759 10.9786L13.1446 10.4308C13.1431 10.4488 13.1419 10.464 13.1412 10.4727C13.1408 10.4771 13.1405 10.4813 13.1404 10.4834C13.1401 10.4861 13.1401 10.4869 13.14 10.4874C13.1398 10.4909 13.1415 10.469 13.1442 10.4383C13.1497 10.3782 13.1638 10.2319 13.1943 10.0431L19.7632 11.1036L26.332 12.1641C26.3694 11.9326 26.3882 11.7438 26.3975 11.6419C26.4021 11.5903 26.4055 11.5476 26.4069 11.5306C26.4092 11.5011 26.4078 11.519 26.4071 11.5264L19.7759 10.9786ZM19.7632 11.1036L13.1951 10.0381C13.2935 9.4319 13.5837 8.31149 14.587 7.28726L19.3403 11.9434L24.0936 16.5996C25.6846 14.9755 26.1738 13.139 26.3312 12.169L19.7632 11.1036ZM19.3403 11.9434L14.7169 16.7287C14.2991 16.325 14.0075 15.9058 13.8036 15.5378L19.6235 12.3126L25.4435 9.08732C25.1147 8.49407 24.6392 7.81083 23.9637 7.15819L19.3403 11.9434ZM19.6235 12.3126L15.9154 17.8375C15.6726 17.6745 15.4816 17.5171 15.3416 17.3909L19.7964 12.4483L24.2511 7.50574C24.0053 7.28414 23.6995 7.03461 23.3316 6.7877L19.6235 12.3126ZM19.7964 12.4483L21.4972 18.8811C21.5147 18.8765 21.4598 18.8913 21.3846 18.9089C21.3035 18.9279 21.1711 18.9568 21.0037 18.9837L19.9477 12.4141L18.8918 5.84458C18.4781 5.91107 18.1415 6.00333 18.0955 6.0155L19.7964 12.4483ZM19.9477 12.4141L21.0026 18.9839C20.0052 19.144 18.9511 19.0101 17.9862 18.5478L20.8608 12.547L23.7355 6.54607C22.1837 5.80272 20.4879 5.58831 18.8929 5.84441L19.9477 12.4141ZM20.8608 12.547L23.5697 18.6245C23.2918 18.7483 22.9091 18.8878 22.4379 18.9765L21.2065 12.4376L19.9752 5.89863C19.2431 6.03649 18.63 6.25638 18.152 6.46943L20.8608 12.547ZM21.2065 12.4376L22.4361 18.9769C21.6493 19.1248 20.6832 19.1121 19.6854 18.7359L22.0327 12.5098L24.38 6.28374C22.786 5.68281 21.2396 5.66089 19.977 5.89829L21.2065 12.4376ZM22.0327 12.5098L19.6835 18.7352C19.0054 18.4793 18.4992 18.1279 18.1581 17.8356L22.4868 12.7823L26.8155 7.72896C26.2303 7.2277 25.4257 6.67838 24.3819 6.28448L22.0327 12.5098ZM22.4868 12.7823L23.3317 19.3823C22.4912 19.4899 21.3999 19.4066 20.3088 18.8354L23.395 12.9405L26.4812 7.04565C24.7706 6.15007 23.0362 6.0038 21.6419 6.18229L22.4868 12.7823ZM23.395 12.9405L19.8991 18.602L20.0778 18.7124L23.5737 13.0509L27.0696 7.38935L26.8909 7.27899L23.395 12.9405ZM23.5737 13.0509L19.7414 18.4903L19.8703 18.5811L23.7026 13.1417L27.5349 7.70225L27.406 7.61143L23.5737 13.0509ZM23.7026 13.1417L19.8537 18.5694C18.3605 17.5105 17.9348 16.0517 17.8116 15.3955L24.3511 14.1671L30.8905 12.9386C30.6735 11.783 29.9565 9.41941 27.5515 7.71396L23.7026 13.1417ZM24.3511 14.1671L17.8113 15.3944C17.7168 14.8908 17.7196 14.4676 17.7414 14.1702L24.3774 14.6573L31.0134 15.1444C31.0545 14.5856 31.056 13.8201 30.8908 12.9397L24.3511 14.1671ZM24.3774 14.6573L17.7622 13.9407L17.7496 14.0578L24.3647 14.7745L30.9799 15.4911L30.9926 15.3739L24.3774 14.6573ZM24.3647 14.7745L17.7589 13.976L17.7374 14.1537L24.3432 14.9522L30.949 15.7507L30.9705 15.573L24.3647 14.7745ZM24.3432 14.9522L17.7407 14.1269L17.7144 14.3379L24.3169 15.1632L30.9194 15.9885L30.9457 15.7775L24.3432 14.9522ZM24.3169 15.1632L18.3035 12.3147L18.2947 12.3333L24.3081 15.1817L30.3214 18.0302L30.3302 18.0116L24.3169 15.1632ZM24.3081 15.1817L17.66 14.905C17.6784 14.4622 17.7563 13.9862 17.9174 13.4998L24.2339 15.5919L30.5503 17.684C30.8014 16.9258 30.9264 16.1738 30.9562 15.4584L24.3081 15.1817ZM24.2339 15.5919L17.9186 13.4962C18.7869 10.8796 21.542 9.43189 24.1658 10.1464L22.4175 16.5665L20.6691 22.9866C24.8193 24.1167 29.1765 21.8238 30.5491 17.6876L24.2339 15.5919ZM22.4175 16.5665L20.6754 10.1447C20.5252 10.1854 20.4065 10.2233 20.3415 10.2446C20.308 10.2555 20.2814 10.2645 20.2683 10.2689C20.2616 10.2712 20.2563 10.273 20.2546 10.2736C20.251 10.2748 20.2544 10.2737 20.2558 10.2732C20.2602 10.2717 20.279 10.2653 20.3035 10.2571C20.3287 10.2488 20.3661 10.2366 20.4117 10.2223C20.5013 10.1944 20.641 10.1528 20.8145 10.1107L22.3862 16.5762L23.9579 23.0418C24.1368 22.9984 24.2817 22.9553 24.3765 22.9257C24.4668 22.8975 24.5385 22.873 24.548 22.8698C24.5507 22.8688 24.5554 22.8672 24.5531 22.868C24.5527 22.8681 24.5487 22.8695 24.5432 22.8714C24.5327 22.8749 24.5088 22.883 24.4779 22.8931C24.418 22.9127 24.3045 22.949 24.1595 22.9883L22.4175 16.5665ZM22.3862 16.5762L20.8166 10.1101C21.8319 9.86371 23.1802 9.87869 24.4911 10.5977L21.2915 16.4317L18.0918 22.2658C20.1739 23.4077 22.323 23.4387 23.9558 23.0424L22.3862 16.5762ZM21.2915 16.4317L24.4919 10.5981C25.2326 11.0044 25.73 11.5108 26.031 11.8868L20.8364 16.045L15.6418 20.2032C16.1552 20.8445 16.9437 21.6359 18.091 22.2653L21.2915 16.4317ZM20.8364 16.045L22.9151 9.72414L22.7696 9.67629L20.6909 15.9971L18.6122 22.318L18.7577 22.3659L20.8364 16.045ZM20.6909 15.9971L26.9442 18.2711L26.9481 18.2603L20.6948 15.9864L14.4415 13.7125L14.4376 13.7232L20.6909 15.9971ZM20.6948 15.9864L21.7843 9.42233C21.909 9.44302 22.0112 9.46385 22.0816 9.47908C22.1506 9.49401 22.2029 9.50663 22.2208 9.51097C22.2302 9.51323 22.237 9.51491 22.2339 9.51416C22.2338 9.51413 22.2298 9.51314 22.2266 9.51236C22.2228 9.51143 22.217 9.51 22.2101 9.50833C22.1853 9.50227 22.1265 9.48801 22.0528 9.47167L20.6128 15.9679L19.1727 22.464C19.1129 22.4508 19.0679 22.4398 19.0568 22.4371C19.0517 22.4359 19.0465 22.4346 19.0536 22.4363C19.0574 22.4373 19.0711 22.4406 19.0872 22.4445C19.1188 22.4522 19.1847 22.468 19.2673 22.4859C19.3513 22.504 19.4671 22.5275 19.6053 22.5505L20.6948 15.9864ZM20.6128 15.9679L19.5876 9.39342C20.247 9.2906 20.9979 9.3079 21.7766 9.53077L19.9458 15.9278L18.115 22.3249C19.3505 22.6785 20.56 22.7104 21.6379 22.5423L20.6128 15.9679ZM19.9458 15.9278L17.2316 9.85266C17.3732 9.7894 17.6879 9.65769 18.1213 9.55697L19.6274 16.0382L21.1335 22.5194C21.7992 22.3647 22.3258 22.1523 22.6599 22.003L19.9458 15.9278ZM19.6274 16.0382L18.2231 9.53416L18.1372 9.55271L19.5415 16.0567L20.9458 22.5607L21.0317 22.5422L19.6274 16.0382ZM19.5415 16.0567L18.0507 9.57198L17.9658 9.59151L19.4565 16.0762L20.9473 22.561L21.0322 22.5415L19.5415 16.0567ZM19.4565 16.0762L17.9506 9.59503C19.3479 9.27036 20.9683 9.53315 22.2727 10.5776L18.1137 15.7716L13.9548 20.9655C16.0639 22.6543 18.6852 23.0866 20.9625 22.5575L19.4565 16.0762ZM18.1137 15.7716L18.5642 9.13295C19.355 9.1866 20.0675 9.41783 20.6614 9.73739L17.5083 15.5968L14.3552 21.4561C15.2979 21.9634 16.4162 22.3256 17.6633 22.4102L18.1137 15.7716ZM17.5083 15.5968L17.9689 8.95884C18.8187 9.01781 19.8046 9.30656 20.6974 9.97376L16.7143 15.3038L12.7313 20.6338C14.1357 21.6833 15.6755 22.1395 17.0477 22.2347L17.5083 15.5968ZM16.7143 15.3038L18.3565 8.85574C18.9132 8.99751 19.5172 9.25294 20.0934 9.66841L16.2016 15.0655L12.3099 20.4626C13.2148 21.1151 14.1689 21.5218 15.0722 21.7518L16.7143 15.3038ZM16.2016 15.0655L20.096 9.67032C20.2777 9.80148 20.4108 9.91479 20.4816 9.97711L16.0864 14.9727L11.6912 19.9684C11.8335 20.0936 12.0429 20.2699 12.3073 20.4607L16.2016 15.0655ZM16.0864 14.9727L16.7243 8.3495C17.4681 8.42114 18.1877 8.65511 18.8321 9.03475L15.4546 14.7677L12.077 20.5006C13.1054 21.1064 14.2557 21.4811 15.4485 21.596L16.0864 14.9727ZM15.4546 14.7677L10.928 9.89075C11.5484 9.31491 12.3483 8.86163 13.2753 8.64954L14.7593 15.1358L16.2433 21.6221C17.7179 21.2847 18.9879 20.5664 19.9811 19.6446L15.4546 14.7677ZM14.7593 15.1358L13.2774 8.64905C13.7306 8.54553 14.1624 8.51199 14.5543 8.52235L14.3784 15.1739L14.2024 21.8255C14.824 21.8419 15.5128 21.789 16.2411 21.6226L14.7593 15.1358ZM14.3784 15.1739L9.31513 10.8568C9.31871 10.8526 9.48931 10.6484 9.75338 10.4085L14.228 15.3331L18.7026 20.2577C19.0787 19.916 19.3467 19.6023 19.4417 19.491L14.3784 15.1739ZM14.228 15.3331L9.83421 10.3362L9.77757 10.386L14.1714 15.3829L18.5652 20.3798L18.6218 20.33L14.228 15.3331ZM14.1714 15.3829L9.63729 10.513L9.58065 10.5657L14.1147 15.4356L18.6488 20.3056L18.7054 20.2528L14.1714 15.3829ZM14.1147 15.4356L9.89734 10.289L9.75672 10.4042L13.9741 15.5509L18.1915 20.6975L18.3321 20.5823L14.1147 15.4356ZM13.9741 15.5509L10.0514 10.1762C10.5073 9.84353 10.9538 9.63331 11.3266 9.50146L13.5454 15.7745L15.7642 22.0475C16.4273 21.813 17.1652 21.4594 17.8968 20.9255L13.9741 15.5509ZM13.5454 15.7745L7.3654 13.3084C7.70948 12.4461 8.45906 11.3306 9.80266 10.6592L12.7768 16.6114L15.751 22.5636C17.9519 21.4638 19.1462 19.6921 19.7254 18.2406L13.5454 15.7745ZM12.7768 16.6114L9.83578 10.6428L9.7684 10.676L12.7095 16.6446L15.6505 22.6132L15.7179 22.58L12.7768 16.6114ZM12.7095 16.6446L9.73375 10.6932L9.66539 10.7274L12.6411 16.6788L15.6168 22.6302L15.6852 22.596L12.7095 16.6446ZM12.6411 16.6788L9.66971 10.7252C11.0985 10.0121 12.4139 10.164 13.0731 10.3142L11.5952 16.8018L10.1173 23.2895C11.2143 23.5394 13.3291 23.772 15.6125 22.6324L12.6411 16.6788ZM11.5952 16.8018L13.0753 10.3147C13.4057 10.3901 13.6535 10.4803 13.7798 10.5296L11.3618 16.7286L8.94382 22.9276C9.20756 23.0305 9.61184 23.1742 10.1151 23.289L11.5952 16.8018ZM11.3618 16.7286L5.89715 12.9323C6.09874 12.6421 6.38849 12.2932 6.79004 11.9554L11.0737 17.047L15.3574 22.1385C15.9966 21.6008 16.4738 21.0325 16.8264 20.5249L11.3618 16.7286ZM11.0737 17.047L6.79217 11.9536C7.43855 11.4102 8.1626 11.0782 8.85798 10.9118L10.4067 17.3829L11.9555 23.854C13.1061 23.5786 14.2935 23.0329 15.3552 22.1403L11.0737 17.047ZM10.4067 17.3829L5.56003 12.824C5.59846 12.7831 5.74778 12.625 5.96956 12.4361L10.2846 17.5011L14.5997 22.566C14.9107 22.3012 15.1403 22.0621 15.2534 21.9418L10.4067 17.3829ZM10.2846 17.5011L5.97098 12.4349C7.0256 11.5369 8.23307 11.2282 9.20975 11.2123L9.31785 17.8653L9.42595 24.5183C10.9963 24.4928 12.9216 23.9949 14.5983 22.5673L10.2846 17.5011ZM9.31785 17.8653L9.21196 11.2123C9.63219 11.2056 9.94691 11.2498 10.0526 11.2656L9.06492 17.8458L8.07719 24.4259C8.34059 24.4655 8.82449 24.5279 9.42374 24.5183L9.31785 17.8653ZM9.06492 17.8458L7.23473 11.4486C9.3578 10.8412 11.7422 11.6492 13.0076 13.6487L7.38523 17.2071L1.76282 20.7656C3.75708 23.9165 7.52491 25.2072 10.8951 24.243L9.06492 17.8458ZM7.38523 17.2071L13.0088 13.6504C14.1324 15.427 14.0216 17.5948 12.9847 19.2005L7.395 15.5909L1.80532 11.9812C0.153763 14.5387 -0.00732339 17.9668 1.76171 20.7638L7.38523 17.2071ZM7.395 15.5909L13.5373 18.1496C13.437 18.3903 13.2609 18.7564 12.9657 19.1621L7.58543 15.2471L2.20518 11.3322C1.74018 11.9712 1.44279 12.576 1.25274 13.0322L7.395 15.5909ZM7.58543 15.2471L14.1977 15.9899C14.219 15.8001 14.2297 15.6314 14.2349 15.4901C14.2375 15.4192 14.2388 15.3539 14.2392 15.2953C14.2397 15.2367 14.2393 15.1837 14.2386 15.1374C14.2378 15.0911 14.2367 15.0501 14.2355 15.0159C14.2343 14.9817 14.2331 14.9526 14.232 14.9303C14.231 14.9083 14.23 14.8905 14.2295 14.8802C14.2292 14.875 14.2289 14.8707 14.2288 14.8684C14.2287 14.8664 14.2286 14.8643 14.2286 14.8652C14.2286 14.8654 14.2288 14.8678 14.2289 14.8709C14.2291 14.8741 14.2294 14.8791 14.2297 14.8852C14.2304 14.8973 14.2314 14.9165 14.2324 14.9403C14.2335 14.9642 14.2348 14.9949 14.2359 15.0306C14.237 15.0664 14.2381 15.1089 14.2387 15.1567C14.2398 15.2514 14.2393 15.3741 14.2333 15.5173C14.2273 15.661 14.2154 15.8313 14.1927 16.0223L7.58543 15.2364L0.978121 14.4505C0.955304 14.6424 0.943401 14.8136 0.937321 14.9581C0.93126 15.1022 0.930752 15.2259 0.931936 15.3215C0.933112 15.4164 0.936106 15.4933 0.938241 15.5406C0.939334 15.5648 0.940357 15.5845 0.941025 15.597C0.941652 15.6087 0.942198 15.6183 0.942201 15.6183C0.942375 15.6214 0.941912 15.6133 0.941443 15.6047C0.940906 15.5948 0.939984 15.5775 0.938968 15.5559C0.937941 15.5341 0.936699 15.5054 0.935543 15.4717C0.934385 15.438 0.933256 15.3975 0.932518 15.3516C0.931056 15.2608 0.930989 15.1415 0.93613 15.0015C0.94129 14.8611 0.951914 14.6933 0.973134 14.5044L7.58543 15.2471ZM7.58543 15.2364L14.1884 16.058C14.1248 16.5688 13.9118 17.6569 13.0378 18.7032L7.93113 14.4376L2.82444 10.1719C1.43155 11.8394 1.08634 13.58 0.982469 14.4148L7.58543 15.2364ZM7.93113 14.4376L13.0364 18.7049C12.2479 19.6483 11.226 20.1904 10.2559 20.4147L8.7573 13.9317L7.25875 7.44878C5.69343 7.81061 4.07594 8.67468 2.82586 10.1702L7.93113 14.4376ZM8.7573 13.9317L14.4823 17.3227C14.2797 17.6647 13.9944 18.0531 13.601 18.4265L9.02 13.6007L4.43897 8.77487C3.82208 9.36047 3.3669 9.97586 3.0323 10.5408L8.7573 13.9317ZM9.02 13.6007L13.6003 18.4272C12.5046 19.4669 11.1773 19.8118 10.1877 19.8373L10.0161 13.1856L9.84452 6.53396C8.25489 6.57496 6.20031 7.10339 4.43972 8.77415L9.02 13.6007ZM10.0161 13.1856L13.016 19.1249C12.8692 19.199 12.6018 19.3243 12.2424 19.437L10.2514 13.088L8.2605 6.73893C7.73544 6.90358 7.31184 7.09704 7.0162 7.24637L10.0161 13.1856ZM10.2514 13.088L12.2403 19.4376C11.6718 19.6157 11.1464 19.6717 10.7136 19.6715L10.7163 13.0177L10.7189 6.36378C10.0086 6.36349 9.16743 6.45486 8.26254 6.73829L10.2514 13.088ZM10.7163 13.0177L15.2716 8.16757C15.6497 8.52272 15.9296 8.89265 16.1344 9.22715L10.4595 12.7012L4.78453 16.1753C5.11662 16.7178 5.56407 17.3071 6.16099 17.8677L10.7163 13.0177ZM10.4595 12.7012L6.90465 7.07653C7.23079 6.87041 7.75756 6.59538 8.46602 6.44005L9.89109 12.9395L11.3162 19.439C12.4774 19.1844 13.3848 18.7238 14.0143 18.326L10.4595 12.7012ZM9.89109 12.9395L8.47141 6.43887L8.30148 6.47598L9.72117 12.9766L11.1409 19.4773L11.3108 19.4402L9.89109 12.9395ZM9.72117 12.9766L8.29689 6.47698C9.36498 6.24293 10.7263 6.31821 12.0035 7.0805L8.59324 12.794L5.183 18.5075C7.22714 19.7276 9.41281 19.856 11.1455 19.4763L9.72117 12.9766ZM8.59324 12.794L12.0056 7.08176C13.1596 7.77111 13.7293 8.71665 13.9821 9.24409L7.98191 12.1202L1.98174 14.9963C2.40548 15.8803 3.33204 17.4018 5.18088 18.5063L8.59324 12.794ZM7.98191 12.1202L13.9827 9.24535C14.0423 9.36985 14.0834 9.4668 14.0952 9.49464C14.1009 9.50804 14.1061 9.52049 14.1012 9.50887C14.0991 9.50388 14.0882 9.47771 14.0752 9.44698L7.95359 12.0548L1.83202 14.6625C1.82351 14.6426 1.81714 14.6272 1.81961 14.6331C1.81973 14.6334 1.82274 14.6407 1.8255 14.6473C1.82867 14.6548 1.83352 14.6664 1.83936 14.6802C1.86042 14.73 1.91112 14.8489 1.98113 14.995L7.98191 12.1202ZM7.95359 12.0548L12.2492 6.97326C12.6601 7.32056 12.9709 7.69484 13.2044 8.04798L7.65476 11.7188L2.10508 15.3897C2.48244 15.9602 2.98977 16.5714 3.65797 17.1363L7.95359 12.0548ZM7.65476 11.7188L10.7669 5.8376C11.1423 6.03627 11.4033 6.2317 11.5168 6.32034L7.42136 11.5645L3.32593 16.8087C3.57855 17.006 3.99281 17.3091 4.54266 17.6001L7.65476 11.7188ZM7.42136 11.5645L10.6789 5.7626C12.7852 6.94516 13.8431 9.48508 13.0482 11.8806L6.73289 9.78523L0.417559 7.68983C-0.837275 11.4718 0.829696 15.4945 4.16381 17.3665L7.42136 11.5645ZM6.73289 9.78523L13.0481 11.881C12.4174 13.7817 10.7963 15.0457 8.99983 15.343L7.91355 8.7784L6.82728 2.21379C3.96695 2.6871 1.41164 4.69428 0.417665 7.68951L6.73289 9.78523ZM7.91355 8.7784L12.0088 14.0227C11.9012 14.1068 11.568 14.3608 11.0703 14.5979L8.20847 8.5909L5.34661 2.58392C4.616 2.93199 4.08867 3.32294 3.81826 3.5341L7.91355 8.7784ZM8.20847 8.5909L11.0687 14.5986C10.5175 14.8611 9.50339 15.2182 8.21273 15.0509L9.06785 8.45223L9.92297 1.85352C7.87555 1.5882 6.25398 2.15192 5.34821 2.58315L8.20847 8.5909ZM9.06785 8.45223L8.20997 15.0506C6.81777 14.8696 5.74672 14.1628 5.05381 13.3899L10.0083 8.94832L14.9627 4.50677C13.8477 3.263 12.1362 2.14128 9.92573 1.85388L9.06785 8.45223ZM10.0083 8.94832L5.05265 13.3886C4.51144 12.7845 4.22127 12.177 4.06612 11.7563L10.3091 9.45418L16.552 7.15205C16.2836 6.42425 15.8108 5.45331 14.9639 4.50807L10.0083 8.94832ZM10.3091 9.45418L12.4362 15.7589C12.4594 15.7511 12.4261 15.7624 12.3839 15.7759C12.337 15.7909 12.2487 15.8184 12.1342 15.8492L10.4087 9.42293L8.6831 2.99669C8.4136 3.06906 8.18393 3.14879 8.18191 3.14947L10.3091 9.45418ZM10.4087 9.42293L12.1326 15.8496C11.7621 15.949 11.4579 15.9882 11.2594 16.0053L10.688 9.37605L10.1165 2.74676C9.72281 2.7807 9.2307 2.8498 8.68475 2.99625L10.4087 9.42293ZM10.688 9.37605L14.2309 15.0083C13.7521 15.3095 12.9113 15.7143 11.7842 15.7551L11.5434 9.10555L11.3027 2.45603C9.45033 2.5231 8.0299 3.18724 7.14507 3.74382L10.688 9.37605ZM11.5434 9.10555L11.8676 15.7515L11.9477 15.7476L11.6235 9.10164L11.2993 2.45566L11.2192 2.45957L11.5434 9.10555ZM11.6235 9.10164L11.8668 15.7511L11.9469 15.7481L11.7036 9.09871L11.4603 2.44928L11.3802 2.45221L11.6235 9.10164ZM11.7036 9.09871L11.6532 15.7524L11.7821 15.7534L11.8325 9.09969L11.8829 2.446L11.754 2.44502L11.7036 9.09871ZM11.8325 9.09969L11.543 15.7473C9.99136 15.6797 8.82786 14.9464 8.13872 14.2583L12.8403 9.54988L17.5419 4.84147C16.3907 3.69198 14.5527 2.55798 12.122 2.45211L11.8325 9.09969ZM12.8403 9.54988L13.359 16.1835C13.0561 16.2072 12.6745 16.207 12.24 16.1394L13.2622 9.56453L14.2843 2.98963C13.5541 2.87611 12.8891 2.87188 12.3216 2.91625L12.8403 9.54988ZM13.2622 9.56453L12.3212 16.1515L12.3964 16.1623L13.3374 9.57527L14.2784 2.98827L14.2032 2.97753L13.2622 9.56453ZM13.3374 9.57527L12.2297 16.1363L12.3049 16.149L13.4126 9.58797L14.5203 3.02694L14.4451 3.01425L13.3374 9.57527ZM13.4126 9.58797L12.3878 16.1625C10.6091 15.8852 9.52356 14.7779 9.03081 14.0586L14.52 10.2979L20.0092 6.53722C19.12 5.23932 17.3368 3.46541 14.4373 3.01347L13.4126 9.58797ZM14.52 10.2979L15.0326 16.932C14.5946 16.9659 14.2232 16.9386 13.9467 16.9007L14.852 10.3087L15.7574 3.71667C15.2892 3.65238 14.6928 3.61086 14.0074 3.66383L14.52 10.2979ZM14.852 10.3087L19.3059 15.252C18.361 16.1034 17.2911 16.449 16.447 16.5439L15.7036 9.93172L14.9602 3.31949C13.5559 3.47737 11.8707 4.03854 10.3981 5.36531L14.852 10.3087ZM15.7036 9.93172L20.9571 14.0152C20.6172 14.4525 20.1291 14.9257 19.4711 15.2999L16.1821 9.5157L12.8931 3.73155C11.8215 4.34089 11.0254 5.1081 10.4501 5.8482L15.7036 9.93172ZM16.1821 9.5157L19.4647 15.3035L19.5956 15.2293L16.313 9.44148L13.0303 3.6537L12.8995 3.72792L16.1821 9.5157ZM16.313 9.44148L19.5993 15.2272C19.2028 15.4524 18.8392 15.5899 18.5584 15.6746L16.6382 9.30379L14.7179 2.93303C14.226 3.08129 13.6429 3.30574 13.0266 3.6558L16.313 9.44148ZM16.6382 9.30379L22.8513 11.6851C22.5583 12.4495 21.9095 13.5471 20.6187 14.2851L17.3159 8.50887L14.0131 2.73259C11.9549 3.9094 10.9115 5.65304 10.425 6.92245L16.6382 9.30379ZM17.3159 8.50887L20.6633 14.2595L20.7287 14.2214L17.3813 8.47078L14.034 2.72019L13.9685 2.75828L17.3159 8.50887ZM17.3813 8.47078L20.7014 14.2372L20.7658 14.2001L17.4458 8.43367L14.1257 2.66727L14.0613 2.70438L17.3813 8.47078ZM17.4458 8.43367L20.7465 14.2112C20.6615 14.2597 20.5994 14.2906 20.5716 14.3041L17.6694 8.31648L14.7672 2.32887C14.5884 2.41555 14.3759 2.52428 14.1451 2.65619L17.4458 8.43367ZM17.6694 8.31648L20.5765 14.3017L20.6449 14.2685L17.7378 8.28328L14.8307 2.29806L14.7623 2.33127L17.6694 8.31648ZM17.7378 8.28328L20.6038 14.2883L20.6468 14.2678L17.7807 8.26277L14.9147 2.25777L14.8717 2.27828L17.7378 8.28328ZM17.7807 8.26277L21.4716 13.7991L21.4863 13.7894L17.7954 8.25301L14.1045 2.71665L14.0898 2.72641L17.7807 8.26277ZM17.7954 8.25301L22.6847 12.7662L22.7198 12.7281L17.8305 8.21492L12.9413 3.70173L12.9061 3.73981L17.7954 8.25301ZM17.8305 8.21492L22.7295 12.7177C22.4647 13.0057 22.1783 13.2499 21.8855 13.4527L18.0971 7.9825L14.3088 2.51234C13.833 2.84186 13.3664 3.23915 12.9316 3.71219L17.8305 8.21492ZM18.0971 7.9825L23.8953 11.2467C23.8339 11.3558 23.6767 11.6254 23.42 11.9441L18.2378 7.77059L13.0555 3.59705C12.6865 4.05521 12.4392 4.46911 12.2989 4.71831L18.0971 7.9825ZM18.2378 7.77059L23.4172 11.9476C22.1813 13.4801 20.4826 13.8569 19.4512 13.8609L19.4253 7.20711L19.3993 0.553281C17.6459 0.560124 15.0151 1.16721 13.0583 3.59355L18.2378 7.77059ZM19.4253 7.20711L23.5006 12.4669C23.5182 12.4533 23.4678 12.4929 23.3969 12.5442C23.3201 12.5997 23.1937 12.688 23.029 12.7881L19.5737 7.10164L16.1185 1.41523C15.7079 1.66469 15.3937 1.91334 15.3499 1.9473L19.4253 7.20711ZM19.5737 7.10164L22.9846 12.8148L23.05 12.7757L19.6391 7.06258L16.2283 1.34941L16.1629 1.38848L19.5737 7.10164ZM19.6391 7.06258L23.1264 12.7294L23.1899 12.6903L19.7026 7.02352L16.2153 1.35668L16.1519 1.39575L19.6391 7.06258ZM19.7026 7.02352L23.1535 12.7126C22.2879 13.2377 21.4142 13.4063 20.7253 13.4185L20.6069 6.7657L20.4885 0.112878C19.2432 0.135042 17.7285 0.438685 16.2518 1.33443L19.7026 7.02352ZM20.6069 6.7657L20.7184 13.4186L20.8932 13.4157L20.7817 6.76277L20.6702 0.109829L20.4954 0.112758L20.6069 6.7657ZM20.7817 6.76277L20.8989 13.4156C20.4639 13.4233 20.1276 13.3757 19.9539 13.3458L21.0815 6.78816L22.2091 0.230529C21.8505 0.16885 21.3134 0.0984965 20.6645 0.109927L20.7817 6.76277ZM20.5688 8.56355L22.1826 15.0188L22.2412 15.0041L20.6274 8.54891L19.0136 2.0937L18.955 2.10834L20.5688 8.56355ZM20.6274 8.54891L22.5394 14.9222L22.5492 14.9192L20.6372 8.54598L18.7252 2.17272L18.7154 2.17565L20.6274 8.54891ZM20.6372 8.54598L18.9801 2.10174L18.9117 2.11932L20.5688 8.56355L22.2259 15.0078L22.2943 14.9902L20.6372 8.54598Z" fill="#FEFEFE" mask="url(#path-1-outside-1_1199_3908)"/>
</g>
</svg>
